<?xml version="1.0" standalone="no"?><!DOCTYPE svg PUBLIC "-//W3C//DTD SVG 1.1//EN" "http://www.w3.org/Graphics/SVG/1.1/DTD/svg11.dtd"><svg t="1554969710085" class="icon" style="" viewBox="0 0 1024 1024" version="1.1" xmlns="http://www.w3.org/2000/svg" p-id="1549" xmlns:xlink="http://www.w3.org/1999/xlink" width="32" height="32"><defs><style type="text/css"></style></defs><path d="M365.714286 731.428571q0-30.285714-21.428572-51.714285T292.571429 658.285714t-51.714286 21.428572T219.428571 731.428571t21.428572 51.714286T292.571429 804.571429t51.714285-21.428572T365.714286 731.428571z m200.571428 53.714286q-7.428571-133.142857-100.857143-226.571428T238.857143 457.714286q-8-0.571429-13.714286 5.142857t-5.714286 13.142857v73.142857q0 7.428571 4.857143 12.571429t12.285715 5.714285q88 6.285714 150.857142 69.142858t69.142858 150.857142q0.571429 7.428571 5.714285 12.285715t12.571429 4.857143h73.142857q7.428571 0 13.142857-5.714286t5.142857-13.714286z m219.428572 0.571429q-2.857143-88-32-170t-79.714286-148.571429-117.142857-117.142857-148.571429-79.714286T238.285714 238.285714q-8-0.571429-13.142857 5.142857-5.714286 5.714286-5.714286 13.142858v73.142857q0 7.428571 5.142858 12.571428t12.571428 5.714286q116.571429 4 216 63.714286T612.285714 570.857143t63.714286 216q0.571429 7.428571 5.714286 12.571428t12.571428 5.142858h73.142857q7.428571 0 13.142858-5.714286 6.285714-5.142857 5.142857-13.142857z m165.142857-548v548.571428q0 68-48.285714 116.285715T786.285714 950.857143H237.714286q-68 0-116.285715-48.285714T73.142857 786.285714V237.714286q0-68 48.285714-116.285715T237.714286 73.142857h548.571428q68 0 116.285715 48.285714T950.857143 237.714286z" p-id="1550" fill="#FE6B8B"></path></svg>